<?xml version="1.0" encoding="UTF-8"?>
<!DOCTYPE svg PUBLIC "-//W3C//DTD SVG 1.1//EN" "http://www.w3.org/Graphics/SVG/1.1/DTD/svg11.dtd">
<!-- Creator: CorelDRAW -->
<svg xmlns="http://www.w3.org/2000/svg" xml:space="preserve" width="1.70666in" height="1.70666in" style="shape-rendering:geometricPrecision; text-rendering:geometricPrecision; image-rendering:optimizeQuality; fill-rule:evenodd; clip-rule:evenodd"
viewBox="0 0 1.70666 1.70666"
 xmlns:xlink="http://www.w3.org/1999/xlink">
 <defs>
  <style type="text/css">
   <![CDATA[
    .fil0 {fill:black}
   ]]>
  </style>
 </defs>
 <g id="Layer_x0020_1">
  <metadata id="CorelCorpID_0Corel-Layer"/>
  <path class="fil0" d="M1.06987 1.12566c-0.0505866,0 -0.0917598,-0.0407087 -0.0917598,-0.0907756 0,-0.0500433 0.0411732,-0.0907756 0.0917598,-0.0907756 0.0505906,0 0.091748,0.0407323 0.091748,0.0907756 0,0.0500591 -0.0411575,0.0907756 -0.091748,0.0907756zm0 -0.145248c-0.0303583,0 -0.055063,0.0244291 -0.055063,0.0544646 0,0.0300591 0.0247047,0.0544646 0.055063,0.0544646 0.0303622,0 0.0550433,-0.0244134 0.0550433,-0.0544646 0,-0.0300276 -0.0246811,-0.0544646 -0.0550433,-0.0544646z"/>
  <path class="fil0" d="M0.666142 0.907811c-0.0708386,0 -0.128465,-0.0570354 -0.128465,-0.127091 0,-0.0700748 0.057626,-0.127091 0.128465,-0.127091 0.0708386,0 0.128465,0.0570157 0.128465,0.127091 0,0.0700551 -0.0576339,0.127091 -0.128465,0.127091zm0 -0.21789c-0.0505866,0 -0.0917441,0.0407087 -0.0917441,0.0907756 0,0.0500472 0.0411575,0.0907795 0.0917441,0.0907795 0.0505906,0 0.091748,-0.0407323 0.091748,-0.0907795 1.5748e-005,-0.0500591 -0.0411417,-0.0907756 -0.091748,-0.0907756z"/>
  <path class="fil0" d="M1.0515 0.798858c-0.0404685,0 -0.0734134,-0.0325866 -0.0734134,-0.0726024 0,-0.040063 0.0329449,-0.072626 0.0734134,-0.072626 0.0404724,0 0.0734134,0.0325866 0.0734134,0.072626 0,0.0400157 -0.0329331,0.0726024 -0.0734134,0.0726024zm0 -0.108937c-0.0202283,0 -0.0366929,0.0162795 -0.0366929,0.036311 0,0.0200079 0.0164646,0.0362913 0.0366929,0.0362913 0.0202283,0 0.0366969,-0.0162835 0.0366969,-0.0362913 2.3622e-005,-0.0200315 -0.0164449,-0.036311 -0.0366969,-0.036311z"/>
  <path class="fil0" d="M0.587213 1.13475c-0.0038622,0 -0.00773622,-0.00122441 -0.0110472,-0.00368898 -0.00808661,-0.00605512 -0.00970079,-0.0174213 -0.00358661,-0.0254331l0.0623898 -0.0817126c0.00611024,-0.00800787 0.0176299,-0.00959449 0.0256969,-0.00353937 0.00806693,0.00605118 0.00970472,0.0174173 0.00359055,0.0254291l-0.0623937 0.0817126c-0.00360236,0.00474409 -0.00907087,0.00723228 -0.0146496,0.00723228z"/>
  <path class="fil0" d="M0.952394 0.898724c-0.00422835,0 -0.00848031,-0.0014252 -0.0119488,-0.00440551l-0.0660669 -0.0562835c-0.00767717,-0.00653937 -0.00854331,-0.0180118 -0.00194094,-0.0256142 0.00662205,-0.00760236 0.0182047,-0.00845669 0.0258819,-0.00191732l0.0660669 0.0562835c0.00767323,0.00653543 0.00853937,0.0180118 0.00194094,0.0256142 -0.00361024,0.0041811 -0.00877559,0.00632283 -0.0139331,0.00632283z"/>
  <path class="fil0" d="M0.983622 1.21644l-0.0972756 0c-0.0101339,0 -0.0183504,-0.00811024 -0.0183504,-0.0181535 0,-0.0100433 0.00819291,-0.0181732 0.0183504,-0.0181732l0.0972756 -7.87402e-006c0.0101339,0 0.0183465,0.00812992 0.0183465,0.0181732 0,0.0100433 -0.0082126,0.0181614 -0.0183465,0.0181614z"/>
  <path class="fil0" d="M0.996461 0.602772c-0.00497638,0 -0.00990551,-0.00199606 -0.0135394,-0.0058937 -0.00683465,-0.0073937 -0.00633465,-0.0188898 0.00117717,-0.0256535l0.0642087 -0.0581142c0.00747244,-0.00675984 0.0190866,-0.00625197 0.0259213,0.00114173 0.00685039,0.00741339 0.00633465,0.0189055 -0.00115354,0.0256732l-0.0642323 0.0580945c-0.00350394,0.0031811 -0.00794094,0.00475197 -0.0123819,0.00475197z"/>
  <path class="fil0" d="M1.20622 0.436213c-0.00412992,0 -0.00827953,-0.00136614 -0.0117047,-0.00417717 -0.082252,-0.0676102 -0.181835,-0.10885 -0.287945,-0.119224 -0.0100709,-0.001 -0.0174567,-0.00988189 -0.0164488,-0.0198701 0.000988189,-0.00996457 0.0100079,-0.0172598 0.020063,-0.0162795 0.113441,0.0111024 0.219874,0.0551575 0.307783,0.127413 0.00779921,0.00639764 0.00887402,0.0178504 0.0023937,0.0255748 -0.00363386,0.00434252 -0.00887795,0.00656299 -0.0141417,0.00656299z"/>
  <path class="fil0" d="M1.4037 0.807921c-0.00938976,0 -0.0174173,-0.0071063 -0.0182677,-0.0165394 -0.00937008,-0.10435 -0.0495354,-0.202665 -0.116181,-0.284339 -0.00637795,-0.00780315 -0.0051378,-0.0192402 0.00274803,-0.0255315 0.00790157,-0.00629921 0.0194409,-0.0050748 0.0258189,0.00273228 0.0712087,0.0872992 0.114157,0.192378 0.124193,0.303925 0.000885827,0.00998031 -0.00656299,0.0188071 -0.0166575,0.0197087 -0.000582677,3.14961e-005 -0.00111417,4.33071e-005 -0.00165354,4.33071e-005z"/>
  <path class="fil0" d="M1.27856 1.20611c-0.00412598,0 -0.00827559,-0.00136614 -0.0117008,-0.00417717 -0.00779921,-0.00639764 -0.00887795,-0.0178661 -0.00237008,-0.0255748 0.0671024,-0.0799173 0.108563,-0.176602 0.119913,-0.27961 0.00111417,-0.00996457 0.0101575,-0.0171575 0.0202283,-0.0160945 0.0100709,0.00109843 0.0173583,0.0100394 0.0162402,0.0200079 -0.0121378,0.110114 -0.0564291,0.213484 -0.128173,0.298886 -0.00362992,0.00433465 -0.00885433,0.00656299 -0.0141378,0.00656299z"/>
  <path class="fil0" d="M0.908366 1.40104c-0.00933071,0 -0.0173189,-0.00700787 -0.0182441,-0.016378 -0.00101575,-0.00998031 0.00637795,-0.0188701 0.0164488,-0.0198701 0.103425,-0.0101299 0.200953,-0.0496969 0.282063,-0.114476 0.00790551,-0.00629921 0.0194409,-0.0050748 0.0258228,0.00273622 0.00638189,0.00780709 0.00511811,0.0192126 -0.00276772,0.0255276 -0.0866929,0.0692205 -0.190945,0.111543 -0.301504,0.122362 -0.00061811,5.51181e-005 -0.00121654,9.84252e-005 -0.0018189,9.84252e-005z"/>
  <path class="fil0" d="M0.798295 1.40104c-0.000598425,0 -0.00121654,-3.54331e-005 -0.00183071,-9.84252e-005 -0.110547,-0.0108189 -0.214823,-0.053126 -0.301504,-0.122362 -0.00788583,-0.00631496 -0.00910236,-0.0177283 -0.00274803,-0.0255276 0.00635827,-0.00780315 0.0179213,-0.00902756 0.0257992,-0.00273622 0.0811142,0.0647795 0.178638,0.104346 0.282087,0.114476 0.0100709,0.001 0.0174409,0.00986614 0.0164528,0.0198701 -0.000937008,0.0093622 -0.0089252,0.016378 -0.0182559,0.016378z"/>
  <path class="fil0" d="M0.428059 1.20611c-0.00526378,0 -0.0105079,-0.00222047 -0.0141339,-0.00653937 -0.0717205,-0.0854016 -0.116039,-0.188772 -0.128177,-0.298886 -0.00109055,-0.0099685 0.00619291,-0.0189331 0.0162638,-0.0200118 0.0101102,-0.00105906 0.0191378,0.00611811 0.0202047,0.0160984 0.0113504,0.103008 0.0528386,0.199693 0.119941,0.27961 0.00645669,0.00770079 0.00540551,0.0191535 -0.00237402,0.0255748 -0.00340945,0.00277953 -0.00759843,0.00415354 -0.0117244,0.00415354z"/>
  <path class="fil0" d="M0.302965 0.807921c-0.000535433,0 -0.00111417,-1.9685e-005 -0.00165354,-5.90551e-005 -0.0100945,-0.000893701 -0.0175669,-0.00972047 -0.0166535,-0.0197087 0.0100079,-0.111539 0.0529449,-0.216626 0.124189,-0.303925 0.00638189,-0.00779921 0.0179173,-0.009 0.0257992,-0.00273228 0.00790157,0.00629921 0.00911811,0.0177283 0.00276772,0.0255315 -0.0666417,0.0816732 -0.106835,0.179988 -0.116201,0.284339 -0.000866142,0.00947244 -0.00885433,0.0165551 -0.018248,0.0165551z"/>
  <path class="fil0" d="M0.500429 0.436213c-0.00528346,0 -0.0105079,-0.00222047 -0.0141339,-0.00653937 -0.00646063,-0.00772441 -0.00540945,-0.0191535 0.00237008,-0.0255787 0.0879213,-0.072252 0.194366,-0.116307 0.307783,-0.127413 0.0101102,-0.000976378 0.0190866,0.00631496 0.0200787,0.0162835 0.000992126,0.00996457 -0.00638189,0.0188661 -0.0164528,0.0198701 -0.10613,0.010374 -0.205693,0.0515906 -0.287945,0.119224 -0.00343307,0.0027874 -0.0075748,0.00415354 -0.0117008,0.00415354z"/>
  <path class="fil0" d="M0.853323 0.399429c-0.0404685,0 -0.0733976,-0.0325866 -0.0733976,-0.0726024l0 -0.0954449c-0.0370079,-0.0254291 -0.057811,-0.067748 -0.0547756,-0.112909 0.00424803,-0.063315 0.0557283,-0.114154 0.119748,-0.118205 0.0359173,-0.00226378 0.0701378,0.0098189 0.0963031,0.0341102 0.0257953,0.0239449 0.0405945,0.057748 0.0405945,0.0927323 0,0.0415906 -0.0208661,0.0806378 -0.0550669,0.104248l0 0.0954685c-7.87402e-006,0.0400236 -0.0329094,0.0726024 -0.0734055,0.0726024zm6.29921e-005 -0.36311c-0.00204331,0 -0.00408661,6.29921e-005 -0.00612992,0.000185039 -0.0456969,0.00291339 -0.0824331,0.039185 -0.0854921,0.084378 -0.00233071,0.0348425 0.0151732,0.0673661 0.0456969,0.0848307 0.00565748,0.00324409 0.00916929,0.00923622 0.00916929,0.0157126l0 0.105386c0,0.0200079 0.0164488,0.036315 0.0366772,0.036315 0.0202283,0 0.0366969,-0.0163071 0.0366969,-0.036315l0 -0.105386c0,-0.00647638 0.00348819,-0.0124685 0.00916535,-0.0157126 0.0282953,-0.0161969 0.0459016,-0.046315 0.0459016,-0.0785945 0,-0.0253661 -0.0102992,-0.048878 -0.0289961,-0.066248 -0.0171772,-0.0159567 -0.0392638,-0.0245512 -0.062689,-0.0245512z"/>
  <path class="fil0" d="M0.853449 1.68851c-0.00284646,0 -0.0056811,-0.000102362 -0.00854331,-0.000287402 -0.0640197,-0.00405906 -0.1155,-0.0548701 -0.119748,-0.118201 -0.00301181,-0.0451535 0.0177677,-0.0874803 0.0547756,-0.112913l0 -0.0954409c0,-0.0400433 0.0329213,-0.0726024 0.0733976,-0.0726024 0.0404961,0 0.0734134,0.0325827 0.0734134,0.0726024l0 0.0954646c0.0342008,0.023622 0.0550669,0.0626614 0.0550669,0.104272 0,0.0349882 -0.0147992,0.0687756 -0.0405945,0.0927165 -0.0240984,0.0223425 -0.0549961,0.0343898 -0.0877677,0.0343898zm-0.000125984 -0.363118c-0.0202283,0 -0.0366772,0.0162795 -0.0366772,0.0362874l0 0.105413c0,0.00646063 -0.00351181,0.0124528 -0.00916929,0.0157087 -0.0305236,0.0174606 -0.0480276,0.0499843 -0.0456969,0.0848346 0.00303543,0.045189 0.0397913,0.0814646 0.0854921,0.084374 0.0256929,0.00164961 0.0501496,-0.0070315 0.0688346,-0.0243504 0.0186969,-0.0173583 0.0289961,-0.040878 0.0289961,-0.0662244 0,-0.0322795 -0.0176063,-0.0624134 -0.0459016,-0.0786181 -0.0056811,-0.00324016 -0.00916535,-0.00923228 -0.00916535,-0.0157087l0 -0.105413c-1.5748e-005,-0.0200236 -0.0164843,-0.0363031 -0.0367126,-0.0363031z"/>
  <path class="fil0" d="M1.22315 0.550957c-0.0187835,0 -0.0375827,-0.00709449 -0.0519055,-0.0212323 -0.0286299,-0.0283268 -0.0286299,-0.074374 0,-0.102701l0.0682087 -0.0675118c-0.00800787,-0.0438504 0.00755118,-0.0883346 0.0419606,-0.11815 0.0482598,-0.041811 0.120969,-0.0417323 0.16915,0.000185039 0.0270591,0.0235354 0.0425748,0.0560354 0.0437126,0.0914961 0.00114173,0.0349646 -0.0125512,0.0691969 -0.0375591,0.0939331 -0.0297205,0.0294291 -0.0723622,0.0424449 -0.113441,0.0352362l-0.0682323 0.0675118c-0.0142835,0.0141378 -0.0330945,0.0212323 -0.0518937,0.0212323zm0.142748 -0.304594c-0.0215433,0 -0.0430984,0.00744094 -0.0602835,0.0223504 -0.026563,0.0230039 -0.0374213,0.0582362 -0.0283189,0.0919409 0.00166929,0.00627559 -0.000122047,0.012937 -0.00474803,0.0175197l-0.0753189 0.0745197c-0.00693307,0.00684646 -0.010748,0.0159724 -0.010748,0.0256772 0,0.00970472 0.00383465,0.0188307 0.010748,0.0256772 0.0143071,0.0141614 0.0375827,0.0141614 0.0519055,0l0.0753189 -0.0744961c0.00462598,-0.0046063 0.0113976,-0.00637795 0.017685,-0.00470866 0.0316024,0.00833465 0.0655748,-0.000653543 0.0886496,-0.0234724 0.018122,-0.0179291 0.0276378,-0.0417717 0.0268346,-0.0671181 -0.000826772,-0.0253307 -0.0119291,-0.0485591 -0.0312677,-0.0653701 -0.0172638,-0.0150276 -0.0388465,-0.0225197 -0.0604567,-0.0225197z"/>
  <path class="fil0" d="M0.340689 1.47847c-0.00133858,0 -0.00270472,-2.3622e-005 -0.00404724,-6.29921e-005 -0.0358543,-0.0011378 -0.068685,-0.0165039 -0.0924646,-0.0432598 -0.042374,-0.0476614 -0.0424528,-0.119587 -0.000185039,-0.167335 0.0301102,-0.0340512 0.0750906,-0.049437 0.119398,-0.0415276l0.0682126 -0.0674882c0.0286299,-0.0283425 0.0752087,-0.0283268 0.103819,0 0.0286063,0.0283268 0.0286063,0.074374 0,0.102701l-0.0682323 0.0675079c0.00731102,0.0406339 -0.00585827,0.082815 -0.0356024,0.112236l0 0 0 0c-0.0240197,0.0237717 -0.0569606,0.0372283 -0.0908976,0.0372283zm-0.000114173 -0.217913c-0.0260866,0 -0.0511654,0.0110197 -0.069,0.0311535 -0.0301575,0.0340709 -0.0300945,0.0854173 0.000149606,0.119425 0.0170039,0.0191299 0.0404921,0.0301378 0.0660866,0.0309528 0.0256339,0.000814961 0.0497244,-0.00861811 0.0678465,-0.0265551l0 0c0.0230512,-0.0228189 0.0321535,-0.0564449 0.0237126,-0.0877047 -0.00169291,-0.00627559 0.000125984,-0.012937 0.00475197,-0.0175039l0.075315 -0.0745197c0.00693701,-0.00687008 0.010752,-0.0159724 0.010752,-0.0256929 0,-0.00969685 -0.00381496,-0.0188071 -0.010752,-0.0256772 -0.00693307,-0.00687008 -0.0161378,-0.0106339 -0.0259606,-0.0106339 -0.00980315,0 -0.0190079,0.0037874 -0.0259449,0.0106339l-0.0753189 0.0745197c-0.0046378,0.00458268 -0.0113937,0.00637795 -0.0177047,0.00468898 -0.00796457,-0.00204724 -0.0159921,-0.00308661 -0.0239331,-0.00308661z"/>
  <path class="fil0" d="M1.5782 0.97135c-0.0420472,0 -0.0814882,-0.0206417 -0.105366,-0.0544685l-0.0965 0c-0.0404685,0 -0.0734134,-0.0325827 -0.0734134,-0.072622 0,-0.0400394 0.0329449,-0.0726024 0.0734134,-0.0726024l0.0964764 0c0.0256693,-0.036622 0.0684449,-0.0572244 0.114118,-0.0541811 0.0640039,0.00419685 0.115358,0.055122 0.119461,0.118449 0.00229528,0.0355591 -0.00992913,0.0693819 -0.0344882,0.0952835 -0.024189,0.0254921 -0.0583504,0.0401417 -0.0937008,0.0401417zm-0.201866 -0.163429c-0.0202244,0 -0.0366929,0.0163071 -0.0366929,0.036315 0,0.0200079 0.0164685,0.036311 0.0366929,0.036311l0.106531 0c0.00654331,0 0.0125906,0.0034685 0.0158898,0.00905118 0.0163898,0.0280157 0.0468504,0.0454213 0.0794567,0.0454213 0.0256102,0 0.0494134,-0.010189 0.0669331,-0.028685 0.0175433,-0.0184843 0.0262717,-0.0426693 0.0246181,-0.0680984 -0.00294882,-0.0452165 -0.0395866,-0.0815669 -0.0852835,-0.0845472 -0.0352165,-0.00232677 -0.0680945,0.0149961 -0.0857402,0.0451929 -0.00328346,0.0056063 -0.00933071,0.00904724 -0.0158898,0.00904724l-0.106516 -7.87402e-006z"/>
  <path class="fil0" d="M0.128476 0.97135c-0.035378,0 -0.0695157,-0.0146496 -0.0937283,-0.0401654 -0.0245157,-0.0259016 -0.0367795,-0.059748 -0.0344724,-0.0952835 0.00409055,-0.0633268 0.0554803,-0.114252 0.119465,-0.118449 0.0456575,-0.00299606 0.0884213,0.0175669 0.114118,0.0541811l0.0964567 0c0.0404961,0 0.0734134,0.0325866 0.0734134,0.0726024 0,0.040063 -0.0329173,0.072626 -0.0734134,0.072626l-0.0964724 0c-0.023878,0.0338465 -0.0633189,0.0544882 -0.105366,0.0544882zm-3.93701e-005 -0.21787c-0.00208268,0 -0.00414961,8.66142e-005 -0.00625591,0.000224409 -0.0456969,0.00297244 -0.0823543,0.0393465 -0.0852874,0.0845472 -0.00165354,0.0254291 0.00709843,0.049622 0.0246024,0.0680945 0.0175709,0.0185 0.0413228,0.028689 0.0669567,0.028689 0.0326063,0 0.0630787,-0.0174055 0.0794606,-0.0454213 0.00325984,-0.00558661 0.00932677,-0.00905118 0.0158898,-0.00905118l0.106512 7.87402e-006c0.0202283,0 0.0366969,-0.0163031 0.0366969,-0.036311 0,-0.0200079 -0.0164685,-0.036315 -0.0366969,-0.036315l-0.106504 0c-0.00654724,0 -0.0126142,-0.00344094 -0.0158898,-0.00904724 -0.0166181,-0.0284055 -0.046689,-0.0454173 -0.0794843,-0.0454173z"/>
  <path class="fil0" d="M0.4835 0.550957c-0.0187835,0 -0.0375827,-0.00709449 -0.0519055,-0.0212323l-0.0682126 -0.0674882c-0.044315,0.00790945 -0.0892874,-0.00750394 -0.119398,-0.0415276 -0.0422756,-0.0477638 -0.042189,-0.119697 0.000185039,-0.167354 0.0237795,-0.0267559 0.0566181,-0.0420945 0.0924646,-0.0432362 0.035315,-0.00112205 0.0699646,0.0124094 0.0949606,0.0371457 0.0297205,0.0294016 0.0428898,0.071622 0.0356024,0.112256l0.0682323 0.0675118c0.0286063,0.0283268 0.0286063,0.074374 0,0.102697 -0.0143189,0.0141339 -0.0331299,0.0212283 -0.0519291,0.0212283zm-0.114244 -0.126768c0.00479134,0 0.00949606,0.00187008 0.0129803,0.00533858l0.0753189 0.0744961c0.0143071,0.0141614 0.0375827,0.0141614 0.0519055,0 0.00693701,-0.00684646 0.010752,-0.0159724 0.010752,-0.0256772 0,-0.00970472 -0.00381496,-0.0188307 -0.010752,-0.0256772l-0.075315 -0.0745197c-0.00464173,-0.0046063 -0.00646063,-0.0112677 -0.00475197,-0.0175197 0.0084252,-0.0312598 -0.000661417,-0.064878 -0.0237126,-0.0877047 -0.018122,-0.0179291 -0.0423543,-0.0274094 -0.0678465,-0.0265315 -0.0255945,0.000791339 -0.0490827,0.0117756 -0.0660866,0.0309291 -0.0302362,0.0340315 -0.0302992,0.0853543 -0.000149606,0.119449 0.0232835,0.0262638 0.0589055,0.0370197 0.0929409,0.0280197 0.00154331,-0.000401575 0.00312598,-0.000602362 0.00471654,-0.000602362z"/>
  <path class="fil0" d="M1.36589 1.47844c-0.0301969,0 -0.0603937,-0.0104528 -0.0844764,-0.0313228 -0.0344094,-0.029811 -0.0499685,-0.0742953 -0.0419606,-0.118146l-0.0682087 -0.0674882c-0.0286299,-0.0283268 -0.0286299,-0.074374 0,-0.102701 0.0286299,-0.0283268 0.0752087,-0.0283268 0.103799,0l0.0682323 0.0674882c0.0410709,-0.00721654 0.0837205,0.00578346 0.113441,0.0352323 0.0250157,0.0247402 0.0387008,0.0589961 0.0375591,0.0939606 -0.00115354,0.0354567 -0.0166772,0.0679567 -0.0437126,0.0914685 -0.0241378,0.0209961 -0.0544213,0.0314843 -0.0846732,0.0315079zm-0.142748 -0.30461c-0.00938976,0 -0.0187835,0.00354331 -0.0259449,0.0106142 -0.00693307,0.00687008 -0.010748,0.0159724 -0.010748,0.0256772 0,0.00972047 0.00383858,0.0188307 0.010748,0.0256929l0.0753189 0.0745197c0.00462598,0.00458268 0.00644094,0.011252 0.00474803,0.0175039 -0.00907874,0.033685 0.00175591,0.068937 0.0283189,0.0919409 0.0344252,0.0298504 0.0863386,0.0297874 0.12074,-0.000122047 0.0193386,-0.0168307 0.0304488,-0.0400669 0.0312677,-0.0653858 0.00080315,-0.0253465 -0.0087126,-0.0491929 -0.0268346,-0.0671181 -0.0230748,-0.0228228 -0.0570472,-0.0318465 -0.0886496,-0.0234764 -0.0063189,0.00167323 -0.0130827,-0.000122047 -0.017685,-0.00468898l-0.0753189 -0.0745197c-0.00716142,-0.00709449 -0.0165433,-0.0106378 -0.0259606,-0.0106378z"/>
  <path class="fil0" d="M1.56535 0.236028c-0.0505866,0 -0.0917441,-0.0407323 -0.0917441,-0.0907795 0,-0.0500669 0.0411575,-0.0907756 0.0917441,-0.0907756 0.0505906,0 0.091748,0.0407087 0.091748,0.0907756 0,0.0500472 -0.0411575,0.0907795 -0.091748,0.0907795zm0 -0.145244c-0.0303622,0 -0.0550433,0.0244291 -0.0550433,0.0544646 0,0.0300354 0.0246811,0.0544646 0.0550433,0.0544646 0.0303622,0 0.0550433,-0.0244291 0.0550433,-0.0544646 0,-0.0300354 -0.0247047,-0.0544646 -0.0550433,-0.0544646z"/>
  <path class="fil0" d="M0.152315 1.70666c-0.0708386,0 -0.128465,-0.0570118 -0.128465,-0.127087 0,-0.0700551 0.057626,-0.127091 0.128465,-0.127091 0.0708386,0 0.128465,0.0570354 0.128465,0.127091 -2.3622e-005,0.0700748 -0.0576496,0.127087 -0.128465,0.127087zm0 -0.217866c-0.0505866,0 -0.0917441,0.0407323 -0.0917441,0.0907795 0,0.0500669 0.0411575,0.0907756 0.0917441,0.0907756 0.0505906,0 0.091748,-0.0407087 0.091748,-0.0907756 0,-0.0500472 -0.0411575,-0.0907795 -0.091748,-0.0907795z"/>
  <path class="fil0" d="M0.843051 0.59985c-0.0404685,0 -0.0734134,-0.0325866 -0.0734134,-0.0726024 0,-0.040063 0.0329449,-0.072626 0.0734134,-0.072626 0.0404724,0 0.0734134,0.0325866 0.0734134,0.072626 0,0.0400157 -0.0329331,0.0726024 -0.0734134,0.0726024zm0 -0.108937c-0.0202283,0 -0.0366929,0.0162795 -0.0366929,0.036311 0,0.0200079 0.0164646,0.0362913 0.0366929,0.0362913 0.0202283,0 0.0366969,-0.0162835 0.0366969,-0.0362913 2.3622e-005,-0.0200315 -0.0164449,-0.036311 -0.0366969,-0.036311z"/>
  <path class="fil0" d="M0.813508 1.08049c-0.0404685,0 -0.0734134,-0.0325866 -0.0734134,-0.0726024 0,-0.040063 0.0329449,-0.072626 0.0734134,-0.072626 0.0404724,0 0.0734134,0.0325866 0.0734134,0.072626 0,0.0400157 -0.0329331,0.0726024 -0.0734134,0.0726024zm0 -0.108937c-0.0202283,0 -0.0366929,0.0162795 -0.0366929,0.036311 0,0.0200079 0.0164646,0.0362913 0.0366929,0.0362913 0.0202283,0 0.0366969,-0.0162835 0.0366969,-0.0362913 2.3622e-005,-0.0200315 -0.0164449,-0.036311 -0.0366969,-0.036311z"/>
 </g>
</svg>
