<?xml version="1.0" encoding="utf-8"?>
<!-- Generator: Adobe Illustrator 23.0.2, SVG Export Plug-In . SVG Version: 6.00 Build 0)  -->
<svg version="1.1" id="Layer_1" xmlns="http://www.w3.org/2000/svg" xmlns:xlink="http://www.w3.org/1999/xlink" x="0px" y="0px"
	 viewBox="0 0 384.3985 264.7715" enable-background="new 0 0 384.3985 264.7715" xml:space="preserve">
<g>
	<path d="M231.5967,215.9512c0.8428,6.0098,5.9902,10.6367,12.2295,10.6367c5.2822,0,9.7793-3.3183,11.5508-7.9804
		c0.3213-0.8448,0.5508-1.7334,0.6797-2.6563H231.5967z"/>
	<path d="M243.3936,113.7735l-0.4033-1.0772c-2.9913-0.5449-7.1006-1.3896-11.5274-2.58v4.8193
		c0.8819-0.084,1.7647-0.1817,2.6455-0.2988C237.211,114.2237,240.3086,113.9483,243.3936,113.7735z"/>
	<path d="M273.1895,226.5879c6.2402,0,11.3887-4.6269,12.2304-10.6367H260.961
		C261.8028,221.961,266.9502,226.5879,273.1895,226.5879z"/>
	<circle cx="250.5567" cy="22.5" r="22.5"/>
	<path d="M261.4385,113.9913c8.4443,0.6591,16.5772,2.0449,24.1162,3.9257v-1.6923v-13.7862
		c-2.3828,0.6846-4.9277,1.2246-7.6064,1.5283l1.2627,3.375L261.4385,113.9913z"/>
	<path d="M245.0801,111.0372c0.4316,0.0703,0.8594,0.1035,1.2832,0.1035c3.8574,0,7.2539-2.7969,7.8867-6.7285
		c0.7032-4.3614-2.2636-8.4668-6.623-9.17c-0.002,0-0.3477-0.0547-1.0625-0.1855c-2.4942-0.4434-9.0488-1.7403-14.9473-3.6524
		c-2.2168-0.7109-4.3408-1.5254-6.0283-2.3222c-0.5449-0.2578-1.0469-0.5137-1.4893-0.7637
		c-0.4697-0.2617-0.8662-0.5127-1.1826-0.7334c0.8711-4.6299,1.8985-8.5801,3.0069-11.9434l5.0244,13.4297
		c0.4218,0.1455,0.8437,0.2901,1.2802,0.4307c0.7784,0.2519,1.5674,0.4922,2.3536,0.7207l-6.4151-17.1465l33.5283-12.5459
		l8.8487,23.6475c0.2646-0.0215,0.5302-0.0391,0.7998-0.0391c0.2929,0,0.5898,0.0117,0.8886,0.0391
		c0.4278,0.039,0.875,0.0586,1.334,0.0586l0.1758,0.0019c3.2285,0,7.5-1.1455,11.8125-3.1035V61.7129
		c2.5098,3.5088,4.7783,8.3477,6.2754,12.6241c0.625,1.7441,1.1455,3.3916,1.5645,4.8212
		c-0.5274,0.3311-1.0909,0.6768-1.6934,1.0303c-0.7842,0.46-1.6279,0.9317-2.5176,1.3975
		c-4.7265,2.5234-10.7871,4.7031-15.6172,4.6504c-0.5156,0-1.0195-0.0215-1.5097-0.0664c-4.4004-0.3887-8.2832,2.8632-8.6719,7.2656
		c-0.3906,4.4023,2.8633,8.2832,7.2637,8.6719c0.9785,0.0879,1.955,0.1289,2.9179,0.1289
		c9.3496-0.0586,17.5313-3.5645,23.6309-6.791c0.5557-0.2979,1.0869-0.5948,1.6064-0.8887c5.168-2.9307,8.4776-5.5703,8.71-5.75
		c0.0186-0.0147,0.0342-0.0313,0.0518-0.0459c0.1337-0.1084,0.2597-0.2246,0.3857-0.3418c0.0732-0.0674,0.1484-0.1318,0.2187-0.2012
		c0.1006-0.1006,0.1934-0.208,0.2891-0.3135c0.084-0.0937,0.1709-0.1836,0.25-0.2802c0.0674-0.083,0.1289-0.1719,0.1934-0.2578
		c0.0927-0.1231,0.1884-0.2452,0.2734-0.3731c0.0498-0.0742,0.0918-0.1523,0.1397-0.2285c0.0878-0.1416,0.1777-0.2832,0.2558-0.4297
		c0.0596-0.1103,0.1084-0.2246,0.1621-0.3379c0.0547-0.1152,0.1153-0.2285,0.1641-0.3457c0.0879-0.21,0.165-0.4248,0.2353-0.6426
		c0.0069-0.0215,0.0166-0.0429,0.0235-0.0644c0.2187-0.7002,0.3398-1.4356,0.3574-2.1885c0.001-0.0293,0.0049-0.0586,0.0049-0.0879
		c0.0029-0.1767-0.0069-0.3555-0.0166-0.5342c-0.0049-0.0898-0.0059-0.1797-0.0137-0.2695
		c-0.0117-0.1357-0.0332-0.2705-0.0518-0.4062c-0.0185-0.1338-0.0351-0.2676-0.0605-0.4014
		c-0.0059-0.0293-0.0078-0.0596-0.0137-0.0899c-0.0849-0.3427-1.8818-9.3867-6.3291-19.0312
		c-2.2529-4.8291-5.1425-9.8613-9.2988-14.1143c-4.0742-4.206-10.0059-7.8027-17.1865-7.7832c-0.3311,0-0.6563,0.0264-0.9766,0.0655
		h-9C263.1602,44.3682,257.1621,47,250.5576,47c-6.1132,0-11.707-2.2558-16.0039-5.9716c-2.832,0.9834-6.6367,2.917-10.5166,6.666
		c-6.9248,6.6533-13.7197,18.4678-17.2353,39.0976c-0.1133,0.6494-0.1748,1.336-0.1748,2.0342
		c-0.0039,1.6973,0.376,3.3408,0.9609,4.7305c0,0,0.001,0.001,0.001,0.0019c0.0019,0.0039,0.0029,0.0088,0.0049,0.0137v-0.0019
		c1.1582,2.7031,2.8867,4.5136,4.6074,5.955c2.21,1.8008,4.5869,3.125,7.0684,4.2569c0.9423,0.4306,1.8974,0.8349,2.8671,1.2236
		C232.5918,109.0821,244.8028,110.9688,245.0801,111.0372z M231.4629,68.6397l-3.3349,1.248
		c1.1044-2.4863,2.2363-4.5205,3.3349-6.1806V68.6397z"/>
	<path d="M128.8164,75.3223c6.6895-10.4687,3.627-24.3789-6.8398-31.0684c-10.4697-6.6894-24.3779-3.625-31.0664,6.8438
		c-6.6914,10.4668-3.6279,24.377,6.8379,31.0664C108.2168,88.8536,122.127,85.7911,128.8164,75.3223z"/>
	<path d="M65.5274,62.6016L39.0449,76.6543c-1.9511,1.0352-2.6943,3.4571-1.6601,5.4082l44.0781,83.0743
		c1.0361,1.9531,3.457,2.6953,5.4082,1.6582l26.4844-14.0508c1.9512-1.0352,2.6934-3.457,1.6582-5.4082L70.9365,64.2618
		C69.9004,62.3106,67.4785,61.5664,65.5274,62.6016z"/>
	<path d="M48.6407,233.4395c-1.4151,0-2.7803,0.2051-4.085,0.5566V107.8555c0-2.209-1.791-4-4-4h-2c-2.209,0-4,1.791-4,4v134.4238
		c-1.0039,2.0655-1.582,4.376-1.582,6.8262c0,8.6524,7.0146,15.666,15.667,15.666c8.6533,0,15.666-7.0136,15.666-15.666
		C64.3067,240.4532,57.294,233.4395,48.6407,233.4395z M48.6407,256.6055c-4.1417,0-7.5-3.3574-7.5-7.5c0-4.1426,3.3583-7.5,7.5-7.5
		c4.1416,0,7.5,3.3574,7.5,7.5C56.1407,253.2481,52.7823,256.6055,48.6407,256.6055z"/>
	<path d="M338.6407,233.4395c-0.709,0-1.4014,0.0635-2.085,0.1543V128.8555c0-2.209-1.791-4-4-4h-2c-2.209,0-4,1.791-4,4v8.2022
		v5.9755c-5.3457-4.4921-13.3711-8.8945-23.293-12.8046c-14.498-5.6329-32.9795-9.837-52.5303-9.8409
		c-5.5869,0.002-11.2626,0.3457-16.9541,1.1036c-3.206,0.4248-6.4267,0.6162-9.6503,0.6142
		c-12.5606,0.0068-25.1465-2.9033-36.6719-5.8711c-11.5459-2.9521-21.9561-6.0029-30.6387-6.0293
		c-6.3945,0.0235-10.1758,0.5137-12.5068,1.1143c-1.0733-1.1133-2.1182-2.2197-3.1446-3.3174
		c-3.3925-3.6299-6.5273-7.1309-9.3447-10.1777c-6.3398-8.1914-18.1699-12.1934-24.9258-6.5586
		c-6.7578,5.6347-10.3203,18.3613-1.4726,31.0664c10.1513,14.4004,18.5742,22.999,32.2031,31.7851
		c-1.6582,4.8682-2.5518,8.6426-2.5693,11.7979c-0.002,1.7871,0.3183,3.4336,1.0781,4.8721H52.6016c-2.209,0-4,1.791-4,4v32.498
		c0,2.209,1.791,4,4,4h66h184.2881h12.666c2.209,0,4-1.791,4-4v-28.9971c2.5576-1.208,4.9433-2.6836,7-4.5371v65.3848
		c-2.2373,2.709-3.582,6.1816-3.582,9.9697c0,8.6524,7.0146,15.666,15.667,15.666c8.6533,0,15.666-7.0136,15.666-15.666
		C354.3067,240.4532,347.294,233.4395,338.6407,233.4395z M110.1309,110.0186l-0.0069-0.0176l-0.04-0.0849
		c-1.0713-2.4473-1.124-5.1641-0.1494-7.6514c0.9727-2.4893,2.8584-4.4473,5.3047-5.5186c1.2734-0.5586,2.6221-0.8408,4.0039-0.8408
		c3.9512,0,7.5391,2.332,9.1445,5.9434c0.0557,0.1191,0.1348,0.2812,0.2539,0.5078c0.2364,0.4502,0.6485,1.1924,1.2403,2.1133
		c1.0918,1.707,2.9619,4.2832,5.664,6.8603c2.5528,2.3985,5.2852,4.3477,8.2149,5.8662c0.0879-0.2588,0.1865-0.415,0.2656-0.4892
		c0.0019-0.002,0.0059-0.0049,0.0098-0.0069c0.039-0.0244,0.164-0.0937,0.4687-0.208c1.1465-0.4463,4.5566-1.2949,12.3125-1.2861
		c5.7852-0.0195,13.2441,1.7031,21.6699,3.8672c1.1729,0.0928,2.295,0.3906,3.3282,0.8603c1.4414,0.376,2.9072,0.7588,4.3945,1.1436
		c11.6133,2.9824,24.5898,6.0244,37.918,6.0293c3.4209,0,6.8632-0.2041,10.3066-0.6592c5.4609-0.7256,10.917-1.0586,16.2978-1.0586
		c18.8272-0.0049,36.7754,4.0772,50.7198,9.499c13.5927,5.2051,23.4287,12.0498,26.2031,16.5733
		c0.501,2.332,0.7256,4.4228,0.7256,6.2969c-0.0625,6.8388-2.794,10.8056-7.2988,13.9492
		c-6.7832,4.6718-17.8643,6.3896-27.3487,8.0068c-4.7588,0.835-9.1094,1.6514-12.5722,3.0811
		c-1.7286,0.7236-3.2745,1.6084-4.4961,2.9091c-1.2266,1.2803-2.0215,3.0967-2,5.0166c0,0.167,0.0068,0.3409,0.0214,0.5196
		l0.0108,0.1562l0.0322,0.1524c0.2862,1.372,0.4082,2.5215,0.4082,3.4404c-0.0107,1.8418-0.4482,2.6152-0.8369,2.9971
		c-0.3867,0.3847-1.0908,0.705-2.4609,0.7129c-3.9727,0.0879-11.5733-3.334-18.211-7.5069
		c-6.667-4.1025-12.7978-9.0371-14.4804-11.0449c-1.6944-1.9561-4.0586-2.9912-6.6524-3.6006
		c-2.6152-0.6055-5.5654-0.7969-8.7666-0.7988c-8.4414,0.0078-18.7158,1.3721-27.6181,1.3652c-1.5362,0-3.0284-0.039-4.4581-0.1289
		l-0.208-0.0127c-16.1923-1.001-26.3623-5.9775-40.5312-6.0312c-4.3311,0.0234-7.419-0.3828-8.9111-1.1582
		c-0.7559-0.3858-1.127-0.751-1.4278-1.2705c-0.292-0.5225-0.5176-1.3204-0.5195-2.5967
		c-0.0215-2.6729,1.1016-7.1904,3.5342-13.6475c1.6572-4.4258,2.2031-8.8418,2.2031-12.9804c0-0.0098-0.001-0.0196-0.001-0.0293
		c-11.7431-3.125-19.7578-9.3067-24.0664-13.4698C114.7022,119.0557,111.2783,112.5157,110.1309,110.0186z M338.6407,256.6055
		c-4.1417,0-7.5-3.3574-7.5-7.5c0-4.1426,3.3583-7.5,7.5-7.5c4.1416,0,7.5,3.3574,7.5,7.5
		C346.1407,253.2481,342.7823,256.6055,338.6407,256.6055z"/>
	<path d="M161.0088,139.2237c0.0586,0,0.1133,0,0.1719,0c5.6797,0,11.834-0.7539,18.4551-2.4268
		c4.2832-1.083,6.8789-5.4306,5.7988-9.7138c-1.082-4.2852-5.4316-6.8809-9.7129-5.7989c-5.456,1.375-10.2744,1.9375-14.541,1.9395
		c-13.1719-0.0508-21.4277-5.1934-27.0137-10.4444c-2.7519-2.625-4.7285-5.289-5.9707-7.2324
		c-0.6221-0.9697-1.0635-1.7607-1.3301-2.2676c-0.1318-0.2539-0.2207-0.4375-0.2695-0.539
		c-0.0098-0.0205-0.0185-0.0381-0.0254-0.0508c-0.0058-0.0147-0.0098-0.0234-0.0117-0.0283
		c-1.7871-4.0205-6.4854-5.8487-10.5186-4.083c-4.0498,1.7705-5.8945,6.4892-4.124,10.5361
		c0.2852,0.6133,3.461,7.8164,11.1992,15.2363C130.7588,131.7325,143.4121,139.2237,161.0088,139.2237z"/>
	<rect x="359.3985" y="234.8477" width="25" height="6"/>
	<rect y="234.8477" width="25" height="6"/>
	<rect x="69.0635" y="234.8477" width="250.667" height="6"/>
</g>
</svg>
