<?xml version="1.0" encoding="utf-8"?>
<!-- Generator: Adobe Illustrator 24.0.2, SVG Export Plug-In . SVG Version: 6.00 Build 0)  -->
<svg version="1.1" id="Layer_1" xmlns="http://www.w3.org/2000/svg" xmlns:xlink="http://www.w3.org/1999/xlink" x="0px" y="0px"
	 viewBox="0 0 512 512" style="enable-background:new 0 0 512 512;" xml:space="preserve">
<style type="text/css">
	.st0{fill:#F8C1A6;}
	.st1{opacity:0.37;fill:#8FDDFF;}
	.st2{opacity:0.43;fill:#8FDDFF;}
	.st3{opacity:0.56;fill:#FFFFFF;}
	.st4{opacity:0.4;fill:#8FDDFF;}
	.st5{opacity:0.4;fill:#F2F9FF;}
	.st6{fill:#8FDDFF;}
</style>
<path class="st0" d="M289.0305,79.0479c-3.7578-8.5425-11.9596-13.2027-18.3154-10.4213l0,0
	c-6.3476,2.7852-8.4428,11.9635-4.6726,20.4936l56.1189,146.2749c3.7663,8.5386,13.9591,15.7674,20.3067,12.9865l7.6863-3.2883
	c6.3561-2.7809,11.7975-13.639,8.0311-22.1771L289.0305,79.0479z"/>
<path class="st0" d="M255.1972,121.827c-6.672-11.6064-13.5934-12.2632-19.4796-9.4363
	c-5.8947,2.8269-7.1667,11.4651-2.8103,20.4357l63.1318,135.2339c4.3691,8.9625,12.6872,13.9424,18.5734,11.1155l7.1415-3.3419
	c5.8862-2.8307,10.7997-15.4098,6.4311-24.3766L255.1972,121.827z"/>
<path class="st0" d="M348.2296,81.9037c-2.6852-9.59-10.4422-15.7465-17.3261-13.7594
	c-6.8797,1.9951-10.2842,11.3816-7.5987,20.9677l31.1936,120.3686c2.6813,9.5941,13.0197,12.8118,19.9079,10.8248l8.3304-2.3323
	c6.8797-1.9913,10.28-11.3774,7.5987-20.9635L348.2296,81.9037z"/>
<path class="st0" d="M229.2619,177.8629c-4.527-6.6013-12.6122-9.0209-18.0455-5.4209l0,0
	c-5.4456,3.5999-6.1731,11.8724-1.6418,18.4653l59.4276,107.4741c4.5313,6.5928,15.5928,7.0044,21.0261,3.4045l3.6288-2.2863
	c5.4332-3.6042,10.8831-19.0391,6.3476-25.6404L229.2619,177.8629z"/>
<path class="st0" d="M462.1884,177.8796c-11.8223-3.9618-37.5831-2.9934-50.744,57.607c0,0-4.2069,8.3138-7.2662-0.5904
	l-16.1913-44.0302C246.7667,253.644,264.966,291.6136,264.966,291.6136c22.6802,72.4889,77.0241,100.0329,77.0241,100.0329
	s17.318,31.7092,39.9025,87.396l92.9246-37.5583c-16.9809-41.6235-34.8519-85.8368-34.8519-85.8368
	c15.838-34.3075,14.2792-66.4781,9.4947-89.5325c0,0-3.047-39.3291,14.7822-76.4631
	C468.9476,182.3525,462.1884,177.8796,462.1884,177.8796z"/>
<path class="st1" d="M277.0916,143.8756c0-18.5235-15.019-33.5383-33.5382-33.5383c-0.7318,0-1.4588,0.0333-2.1782,0.083
	c0.3159-1.4796,0.4865-3.018,0.4865-4.5891c0-12.1423-9.8436-21.9822-21.9863-21.9822c-1.6376,0-3.2301,0.1831-4.7637,0.5198
	c0.5321-2.1573,0.8147-4.4023,0.8147-6.7218c0-15.5677-12.6165-28.1884-28.1842-28.1884c-11.0577,0-20.6226,6.3727-25.2411,15.6426
	c-3.5293-5.3456-9.5858-8.8791-16.4739-8.8791c-9.9433,0-18.1703,7.3619-19.5251,16.9354
	c-5.1797-9.4197-15.1898-15.8048-26.6961-15.8048c-16.8106,0-30.4415,13.6266-30.4415,30.4373
	c0,9.0744,3.9741,17.2141,10.2677,22.7883c-20.348,2.191-36.1987,19.4175-36.1987,40.3474
	c0,19.6669,13.9884,36.0616,32.5533,39.7905c-1.5341,3.3296-2.3944,7.0334-2.3944,10.9411c0,14.483,11.7349,26.2137,26.2137,26.2137
	c3.5914,0,7.0167-0.7232,10.1306-2.0284c2.0535,16.5527,16.1623,29.3689,33.2722,29.3689c16.9439,0,30.9443-12.5624,33.214-28.8827
	c3.3879,3.2215,7.9689,5.2085,13.0115,5.2085c10.4298,0,18.885-8.4551,18.885-18.8849c0-0.4406-0.0209-0.8769-0.0498-1.3094
	c4.7969,6.1148,12.2504,10.0434,20.6226,10.0434c14.4788,0,26.2137-11.7311,26.2137-26.2057c0-7.0002-2.7477-13.352-7.2122-18.0493
	C264.3632,174.9986,277.0916,160.9314,277.0916,143.8756z"/>
<path class="st2" d="M460.7836,208.3372c0-27.2609-22.1026-49.3634-49.364-49.3634c-1.0769,0-2.1411,0.0456-3.1968,0.1162
	c0.4614-2.1782,0.7066-4.4398,0.7066-6.7508c0-17.8667-14.4827-32.3579-32.3536-32.3579c-2.4068,0-4.7471,0.2746-7.0044,0.7692
	c0.7773-3.1717,1.1974-6.4808,1.1974-9.8935c0-22.9093-18.5734-41.4826-41.4827-41.4826c-16.2743,0-30.3538,9.3784-37.1462,23.0211
	c-5.192-7.8689-14.1089-13.0609-24.2433-13.0609c-14.641,0-26.7458,10.8329-28.7414,24.9167
	c-7.6195-13.8595-22.3559-23.2622-39.2912-23.2622c-24.7422,0-44.7998,20.0611-44.7998,44.8033
	c0,13.3482,5.8492,25.3245,15.1105,33.5345c-29.9507,3.2214-53.2711,28.5749-53.2711,59.382
	c0,28.9406,20.5812,53.0677,47.909,58.5589c-2.2574,4.9012-3.525,10.3549-3.525,16.1082c0,21.3045,17.272,38.5765,38.5765,38.5765
	c5.2873,0,10.3255-1.0641,14.9152-2.9929c3.0218,24.368,23.7819,43.2278,48.9688,43.2278c24.9334,0,45.535-18.4899,48.8773-42.5046
	c4.9842,4.739,11.7226,7.6613,19.151,7.6613c15.3476,0,27.7934-12.442,27.7934-27.7891c0-0.653-0.0332-1.289-0.0749-1.9292
	c7.0628,8.9958,18.0289,14.7866,30.3542,14.7866c21.3083,0,38.5766-17.2721,38.5766-38.5808
	c0-10.2928-4.0367-19.6375-10.6129-26.5547C442.0523,254.1345,460.7836,233.4332,460.7836,208.3372z"/>
<path class="st3" d="M345.9765,119.9064c8.6798,6.2357,11.2574-11.4812,11.0079-16.6693
	c-0.5946-12.2589-9.0332-20.7098-21.4292-19.2923c-9.2617,1.06-17.2431,7.9022-6.4225,13.481
	c6.489,3.3505,9.3035-0.0166,12.5625,8.5675C343.3828,110.4288,341.5077,116.6973,345.9765,119.9064z"/>
<path class="st3" d="M388.3236,288.3461c-4.3606,2.4528-10.8329,2.0785-10.0182,9.9352c0.7441,7.2083,6.5677,7.2666,12.4832,7.462
	c12.6663,0.4278,19.6082-4.1239,24.6839-15.7635c3.5003-8.0435,6.6013-28.6579-7.4327-27.9138
	C395.033,262.756,398.2047,282.8008,388.3236,288.3461z"/>
<path class="st0" d="M292.0153,75.0363c2.9972-8.8378,0.0958-17.8165-6.4723-20.0529l0,0
	c-6.5597-2.2365-14.3043,3.1176-17.2848,11.9635l-57.3823,145.776c-2.9848,8.842-0.3495,21.0592,6.202,23.2957l7.8984,2.7601
	c6.5638,2.2365,17.9123-2.0952,20.8967-10.9325L292.0153,75.0363z"/>
<path class="st0" d="M238.1785,83.7409c2.9141-13.0651-1.75-18.2238-8.0023-20.1113c-6.2561-1.8955-13.0234,3.6166-15.8626,13.1695
	l-44.7582,142.3754c-2.835,9.5611-0.0621,18.8521,6.1859,20.7434l7.528,2.3528c6.2523,1.8917,18.3695-4.0656,21.2006-13.6348
	L238.1785,83.7409z"/>
<path class="st0" d="M333.7512,117.1174c4.4977-8.8838,2.9307-18.6648-3.4918-21.8451c-6.4183-3.1759-15.2684,1.4469-19.758,10.3259
	L252.229,215.4459c-4.5019,8.8876,0.9438,18.2447,7.3663,21.4249l7.7234,3.9073c6.4183,3.1802,15.2646-1.4507,19.758-10.3298
	L333.7512,117.1174z"/>
<path class="st0" d="M181.2073,107.5602c1.1144-7.9273-3.213-15.1726-9.6522-16.187l0,0
	c-6.4476-1.0182-12.5667,4.5891-13.6764,12.5126l-28.7414,119.396c-1.114,7.923,6.7678,15.6967,13.2027,16.711l4.2235,0.7649
	c6.4391,1.014,20.8843-6.6929,21.9983-14.6201L181.2073,107.5602z"/>
<path class="st0" d="M352.9894,264.8596c-6.0398-10.9078-25.6939-27.5856-76.3217,8.2224c0,0-8.7211,3.2921-4.9633-5.346
	l17.7917-43.4024c-146.5533-49.0647-158.7667-8.7671-158.7667-8.7671C98.509,284.3473,119.988,341.3597,119.988,341.3597
	s-8.6382,35.0809-29.5893,91.4075l93.9016,35.0473c15.5843-42.1684,32.2579-86.843,32.2579-86.843
	c34.8518-14.6116,55.4288-39.3913,67.4592-59.6273c0,0,24.3139-31.0652,62.5415-46.4123
	C354.9556,272.7244,352.9894,264.8596,352.9894,264.8596z"/>
<path class="st4" d="M462.0347,100.9883c-5.2503,0-10.1804,1.3592-14.4661,3.737c-0.4657-4.5807-1.9415-8.8544-4.2027-12.6123
	c0.8148,0.1081,1.6461,0.1664,2.4941,0.1664c10.9908,0,19.9074-8.9127,19.9074-19.9117c0-10.9951-8.9165-19.9078-19.9074-19.9078
	c-10.9994,0-19.9117,8.9128-19.9117,19.9078c0,2.3195,0.3988,4.5394,1.1306,6.6094c-3.093-1.0556-6.3975-1.6294-9.8394-1.6294
	c-16.8401,0-30.4914,13.647-30.4914,30.487c0,16.8358,13.6513,30.4871,30.4914,30.4871c5.5078,0,10.6707-1.4716,15.131-4.0282
	c1.7086,14.8738,14.3375,26.4258,29.6642,26.4258c16.4948,0,29.8634-13.373,29.8634-29.8635
	C491.8981,114.3612,478.5295,100.9883,462.0347,100.9883z"/>
<path class="st5" d="M389.9489,43.5847c0,6.1816-5.0089,11.1947-11.1986,11.1947c-6.1816,0-11.1947-5.0131-11.1947-11.1947
	c0-6.1935,5.0131-11.2072,11.1947-11.2072C384.9399,32.3776,389.9489,37.3912,389.9489,43.5847z"/>
<path class="st5" d="M492.8252,264.2607c0,6.1859-5.0131,11.199-11.199,11.199c-6.1855,0-11.2028-5.0131-11.2028-11.199
	c0-6.1854,5.0174-11.1985,11.2028-11.1985C487.8121,253.0622,492.8252,258.0753,492.8252,264.2607z"/>
<path class="st6" d="M75.2095,241.8632c0,3.7165-3.018,6.7346-6.7384,6.7346c-3.7208,0-6.7346-3.018-6.7346-6.7346
	c0-3.7247,3.0138-6.7426,6.7346-6.7426C72.1914,235.1206,75.2095,238.1385,75.2095,241.8632z"/>
<path class="st6" d="M61.055,102.5305c0,5.9863-4.8514,10.8372-10.8372,10.8372c-5.9819,0-10.8329-4.8509-10.8329-10.8372
	c0-5.9777,4.851-10.8329,10.8329-10.8329C56.2036,91.6975,61.055,96.5528,61.055,102.5305z"/>
<path class="st6" d="M58.6478,263.1719c-0.6649,0-1.3259,0.0332-1.9785,0.0954c-1.7831-4.7429-6.3561-8.1227-11.7225-8.1227
	c-6.9257,0-12.5416,5.6162-12.5416,12.5415c0,2.0122,0.4865,3.9077,1.326,5.5912c-8.0146,0.4448-14.3788,7.0708-14.3788,15.1935
	c0,8.4223,6.8214,15.248,15.2395,15.248c4.5726,0,8.6671-2.0288,11.4608-5.2213c3.4292,2.8103,7.8149,4.4937,12.5952,4.4937
	c10.9994,0,19.9121-8.9127,19.9121-19.9078C78.5599,272.0842,69.6472,263.1719,58.6478,263.1719z"/>
</svg>
