<?xml version="1.0" encoding="utf-8"?>
<!-- Generator: Adobe Illustrator 24.0.2, SVG Export Plug-In . SVG Version: 6.00 Build 0)  -->
<svg version="1.1" id="Layer_1" xmlns="http://www.w3.org/2000/svg" xmlns:xlink="http://www.w3.org/1999/xlink" x="0px" y="0px"
	 viewBox="0 0 512 512" style="enable-background:new 0 0 512 512;" xml:space="preserve">
<style type="text/css">
	.st0{fill:#E1EDFF;}
	.st1{fill:none;stroke:#D9D9D9;stroke-width:2.6976;stroke-miterlimit:10;}
	.st2{fill:none;stroke:#D9D9D9;stroke-width:2.6976;stroke-miterlimit:10;stroke-dasharray:5.5478,5.5478;}
	.st3{fill:none;stroke:#D9D9D9;stroke-width:2.6976;stroke-miterlimit:10;stroke-dasharray:5.5477,5.5477;}
	.st4{fill:none;stroke:#D9D9D9;stroke-width:2.6976;stroke-miterlimit:10;stroke-dasharray:5.2161,5.2161;}
	.st5{fill:#89CEDC;}
	.st6{fill:#75BDCC;}
	.st7{fill:#A9CAFF;}
</style>
<path class="st0" d="M429.7521,339.5865c-21.664-83.0507-2.4747-155.6951-2.4747-155.6951
	c1.7121-6.4505-1.1336-6.7736-1.1336-6.7736c-63.1876-7.2131-108.3196-34.3107-108.3196-34.3107
	c-46.3553-21.7339-55.5107-21.3644-57.3147-20.3926c-1.804-0.9718-10.9592-1.3414-57.3161,20.3926
	c0,0-45.1318,27.0977-108.3181,34.3107c0,0-2.8208,0.3231-1.1333,6.7736c0,0,19.1894,72.6444-2.4981,155.6951
	c0,0,51.929,1.363,85.7771,20.3224c55.5586,31.1206,111.1638,31.2587,166.977,0
	C377.8696,340.9495,429.7521,339.5865,429.7521,339.5865z"/>
<g>
	<g>
		<path class="st1" d="M410.2396,333.9243c4.7749-0.3682,7.6306-0.4438,7.6306-0.4438c-0.6618-2.5155-1.2714-5.0192-1.8548-7.5127"
			/>
		<path class="st2" d="M412.8687,310.4488c-11.7217-67.1214,2.6855-121.7257,2.6855-121.7257
			c1.5771-5.9867-1.0374-6.2878-1.0374-6.2878c-58.7477-6.7273-100.7167-31.9046-100.7167-31.9046
			c-18.2347-8.5515-30.275-13.4209-38.2315-16.1268"/>
		<path class="st1" d="M268.0674,132.1519c-4.9944-1.2323-6.8623-0.9544-7.5578-0.5805c-0.6969-0.3739-2.5648-0.6518-7.5592,0.5805"
			/>
		<path class="st3" d="M237.9685,137.136c-7.5159,2.9096-17.4958,7.1783-30.751,13.3947c0,0-41.9616,25.1773-100.7167,31.9046
			c0,0-2.6071,0.3011-1.0371,6.2878c0,0,15.5143,58.7984,1.2438,129.3694"/>
		<path class="st1" d="M105.0025,325.9677c-0.5762,2.4935-1.1929,4.9973-1.8551,7.5127c0,0,2.8559,0.0756,7.6306,0.4438"/>
		<path class="st4" d="M125.5607,335.4939c16.7364,2.2581,39.6587,6.9979,57.3118,16.8777
			c51.6727,28.9467,103.3731,29.0617,155.273,0c20.4012-11.4221,47.8493-15.9727,64.6425-17.7621"/>
	</g>
</g>
<path class="st5" d="M406.6071,327.7018c-18.7033-71.6738-2.1256-134.4004-2.1256-134.4004
	c1.4564-5.5721-0.9937-5.8486-0.9937-5.8486c-54.5184-6.2427-93.5007-29.6174-93.5007-29.6174
	c-40.0209-18.7747-47.9281-18.4502-49.4775-17.5949c-1.5725-0.8553-9.4563-1.1799-49.4774,17.5949
	c0,0-38.959,23.3747-93.5224,29.6174c0,0-2.4281,0.2766-0.9487,5.8486c0,0,16.5546,62.7266-2.1736,134.4004
	c0,0,44.8307,1.1798,74.0557,17.5249c47.9746,26.8896,95.9491,27.0046,144.1566,0
	C361.801,328.8816,406.6071,327.7018,406.6071,327.7018z"/>
<path class="st6" d="M144.5143,231.2666c43.1896-13.6884,91.7184-38.5645,136.4575-29.4793
	c16.7846,3.3985,33.6403,6.797,50.4712,11.8365c12.417,3.723,37.9187,6.6837,45.8024,17.3882
	c-15.3294,3.5601-40.6-8.7405-55.3506-13.2477c-19.8381-6.0347-39.4901-6.775-60.9226-6.7984
	c-20.2077-0.0231-39.3051,3.8846-57.9403,9.7794c-18.5198,5.85-38.1253,7.561-57.1546,13.2477L144.5143,231.2666z"/>
<path class="st6" d="M152.6292,251.5893c35.9986,11.6284,74.2169,13.895,110.9792,17.6645
	c33.7551,3.4901,73.3601-18.1272,105.1977-25.8959c-20.5073,25.4087-70.0779,39.2586-99.7187,45.0852
	c-21.1563,4.1608-36.7157,2.3582-56.8304-4.3237c-9.4332-3.1222-21.271-5.4105-29.9185-9.4797
	c-8.9705-4.2541-13.8485-10.1258-24.0907-11.0742c-0.371-4.5786-3.3069-4.7867-5.6186-7.9305V251.5893z"/>
<path class="st6" d="M195.9573,323.3547c22.982,2.8442,45.1552,9.3401,69.0841,8.1152
	c22.2882-1.1333,43.0501-8.0002,63.4658-11.9064c-15.1216,14.2646-43.2362,21.4777-63.4658,22.4494
	c-27.1211,1.2717-42.727-10.7511-66.3797-17.3169L195.9573,323.3547z"/>
<path class="st7" d="M497.6098,123.2233c12.3239,18.9596-0.8539,42.9819-3.675,62.0094
	c-3.3765,22.4962,1.5015,45.3401-1.5043,67.6979c-3.1904,23.6278-8.2299,43.0036-21.2462,62.9798
	c-5.6651,8.6694-13.018,21.0399-23.6978,23.6761c-6.9134,1.7092-17.1571,1.2249-19.3072-1.3413
	c-3.3985-4.0926-4.0458-11.5151-4.5552-17.3882c0.1165,1.2729,7.6075,4.6017,8.8789,5.2039
	c2.5897,1.2249,5.3874,2.2187,8.2998,2.2651c5.8266,0.0916,10.45-3.6299,14.1499-7.7921
	c14.9353-16.7609,25.0622-42.5421,28.3691-64.5757c3.2369-21.5476-2.3816-43.2114-0.3011-65.2915
	c1.8505-19.3988,14.4975-40.993,5.1109-60.6461c-15.3762-32.2525-57.9868,42.5654-62.9333,55.6051
	c-2.5446-1.849-7.2145-3.4684-5.1574-9.8726C428.5269,149.6971,473.8886,86.6939,497.6098,123.2233z"/>
<path class="st7" d="M21.9764,124.1255c-12.3254,18.9593,0.8542,42.9816,3.6984,62.0094
	c3.3534,22.496-1.5263,45.3398,1.4795,67.6962c3.1904,23.6295,8.2314,43.0036,21.271,62.9798
	c5.642,8.6709,12.9932,21.0633,23.6978,23.6995c6.8683,1.6875,17.1322,1.1798,19.2838-1.3633
	c3.4205-4.0706,4.046-11.5151,4.5304-17.3882c-0.1147,1.2717-7.6058,4.6251-8.8772,5.2042
	c-2.5911,1.2249-5.364,2.2184-8.2782,2.2652c-5.8266,0.0916-10.4734-3.6313-14.1482-7.7921
	c-14.9601-16.7626-25.0639-42.5424-28.3694-64.5757c-3.2135-21.5475,2.3816-43.2116,0.2765-65.3148
	c-1.826-19.3754-14.4727-40.9696-5.0863-60.623c15.3517-32.2522,58.0088,42.5654,62.9333,55.6286
	c2.5446-1.8739,7.2145-3.4915,5.1328-9.8958C91.0593,150.5975,45.6975,87.6178,21.9764,124.1255z"/>
</svg>
